<svg width="593" height="178" viewBox="0 0 593 178" fill="none" xmlns="http://www.w3.org/2000/svg">
<path d="M0.788086 0.999988L14.2881 15L64.0381 140.25V162L50.5381 176H92.5381L79.0381 163V137.25L125.288 15.25L138.788 0.999988H109.288L123.038 15L78.2881 132.5L31.5381 15L45.0381 0.999988H0.788086ZM129.638 88.5C129.638 138 169.388 176.75 217.388 176.75C265.138 176.75 305.388 138 305.388 88.5C305.388 39 265.638 0.249998 217.638 0.249998C169.888 0.249998 129.638 39 129.638 88.5ZM142.638 71.75C142.638 36 166.138 7.25 202.638 7.25C250.138 7.25 292.388 55.5 292.388 105.25C292.388 141 268.888 169.75 232.388 169.75C184.888 169.75 142.638 121.5 142.638 71.75ZM313.085 0.999988L326.585 15V113.5C326.585 148.75 355.085 177.25 391.085 177.25C427.585 177.25 448.085 148.75 448.335 113.5V15L461.835 0.999988H433.085L446.585 15V113.25C446.585 154.25 420.335 175.25 391.085 175.25C363.835 175.25 341.585 147.5 341.585 113.25V15L355.085 0.999988H313.085ZM592.894 0.999988H564.144L577.644 15V132L490.644 0.999988H470.644L481.894 16.75V162L468.394 176H497.144L483.644 162V18.5L577.644 162L564.644 176H592.894L579.394 162V15L592.894 0.999988Z" fill="white"/>
</svg>
