<svg width="576" height="230" viewBox="0 0 576 230" fill="none" xmlns="http://www.w3.org/2000/svg">
<path d="M55.625 118.25C39.625 110.75 11.875 93.75 11.875 73.25C11.875 57.5 27.625 46.75 46.625 46.75C57.625 46.75 68.375 50.25 78.125 56.5L101.875 84.5L97.375 45H46.125C25.625 45 8.125 57.75 8.125 79C8.125 111.25 36.625 129.5 54.625 138.5C74.875 148.75 104.375 165 104.375 186.25C104.375 205.5 85.375 218.25 63.125 218.25C54.875 218.25 43.375 216.75 30.875 208.75L4.875 179.25L10.625 220H63.125C89.125 220 108.875 203.75 108.875 179.25C108.875 145.25 86.625 132.75 55.625 118.25ZM117.412 220H233.662V203.75L145.912 217.5V116.5L217.162 129.75V113.5L145.912 114V47.5L217.162 61.25V45H117.412L130.912 59V206L117.412 220ZM237.396 132.5C237.396 182 277.146 220.75 325.146 220.75C372.896 220.75 413.146 182 413.146 132.5C413.146 83 373.396 44.25 325.396 44.25C277.646 44.25 237.396 83 237.396 132.5ZM250.396 115.75C250.396 80 273.896 51.25 310.396 51.25C357.896 51.25 400.146 99.5 400.146 149.25C400.146 185 376.646 213.75 340.146 213.75C292.646 213.75 250.396 165.5 250.396 115.75ZM488.373 45H421.123L434.623 59V206L421.123 220H463.123L449.623 206V164C450.873 142.75 469.873 132.5 486.623 123.5C509.623 111 528.623 103 528.623 81.75C528.623 60.75 511.123 45 488.373 45ZM484.373 123C469.123 131.5 454.873 139.25 449.623 155.5V46.75H474.123C507.873 47.5 513.123 68.25 513.123 82.5C513.123 96.75 501.873 113.25 484.373 123Z" fill="white"/>
<circle cx="552.5" cy="199.5" r="23.5" fill="#C1FF10"/>
</svg>
